<svg width="3015" height="2074" xmlns="http://www.w3.org/2000/svg" xmlns:xlink="http://www.w3.org/1999/xlink" overflow="hidden"><defs><clipPath id="clip0"><rect x="631" y="250" width="3015" height="2074"/></clipPath></defs><g clip-path="url(#clip0)" transform="translate(-631 -250)"><path d="M1719 1112.17C1719 1023.71 1790.71 952 1879.17 952L2520.83 952C2609.29 952 2681 1023.71 2681 1112.17L2681 1752.83C2681 1841.29 2609.29 1913 2520.83 1913L1879.17 1913C1790.71 1913 1719 1841.29 1719 1752.83Z" stroke="#FFFFFF" stroke-width="2.29167" stroke-miterlimit="8" fill="none" fill-rule="evenodd"/><text fill="#FFFFFF" font-family="Roboto,Roboto_MSFontService,sans-serif" font-weight="400" font-size="220" transform="matrix(1 0 0 1 1971.12 1377)">shell <tspan font-size="220" x="42.0979" y="264">plot</tspan><tspan font-size="73" x="-369.496" y="-195">x</tspan></text><path d="M1719 1127 1771 1157 1719 1187Z" stroke="#323232" stroke-width="2.29167" stroke-miterlimit="8" fill="#FFFFFF" fill-rule="evenodd"/><path d="M0 0 68.4952 0.000360892" stroke="#FFFFFF" stroke-width="2.29167" stroke-miterlimit="8" fill="none" fill-rule="evenodd" transform="matrix(-1 0 0 1 1719.5 1157)"/><path d="M2681 1105 2733 1135 2681 1165Z" stroke="#000000" stroke-width="2.29167" stroke-miterlimit="8" fill="#FFFFFF" fill-rule="evenodd"/><text fill="#FFFFFF" font-family="Roboto,Roboto_MSFontService,sans-serif" font-weight="400" font-size="73" transform="matrix(1 0 0 1 2801.53 1161)">plot</text><path d="M0 0 54.6553 0.000360892" stroke="#FFFFFF" stroke-width="2.29167" stroke-miterlimit="8" fill="none" fill-rule="evenodd" transform="matrix(-1 0 0 1 2787.66 1135)"/><text fill="#FFFFFF" font-family="Roboto,Roboto_MSFontService,sans-serif" font-weight="400" font-size="73" transform="matrix(-1.83697e-16 -1 1 -1.83697e-16 1979.77 819)">layout_<tspan font-size="73" x="233" y="4.28014e-14">params</tspan></text><path d="M1955 835 1955 870.664" stroke="#FFFFFF" stroke-width="2.29167" stroke-miterlimit="8" fill="none" fill-rule="evenodd"/><path d="M1861.83 1861.72 1847.38 1926.15 1874.86 1908.21 1839 1973 1910 1882.36 1868.79 1896.72 1883.24 1861 1861.83 1861.72Z" stroke="#323232" stroke-width="2.29167" stroke-miterlimit="8" fill="#FFFFFF" fill-rule="evenodd"/><text fill="#FFFFFF" font-family="Roboto,Roboto_MSFontService,sans-serif" font-weight="400" font-size="73" transform="matrix(-1.83697e-16 -1 1 -1.83697e-16 1887.56 2279)">trigger</text><path d="M1807.62 1194C1801.25 1193.94 1795.43 1115.79 1799.18 1111.48 1802.94 1107.18 1811.77 1106.39 1815.7 1111.82 1819.63 1117.24 1813.98 1194.06 1807.62 1194Z" stroke="#323232" stroke-width="2.29167" stroke-miterlimit="8" fill="#FFFFFF" fill-rule="evenodd"/><path d="M1799 1212.5C1799 1207.81 1802.81 1204 1807.5 1204 1812.19 1204 1816 1207.81 1816 1212.5 1816 1217.19 1812.19 1221 1807.5 1221 1802.81 1221 1799 1217.19 1799 1212.5Z" stroke="#323232" stroke-width="2.29167" stroke-miterlimit="8" fill="#FFFFFF" fill-rule="evenodd"/><path d="M0 0 167.111 2.82543" stroke="#FFFFFF" stroke-width="2.29167" stroke-miterlimit="8" fill="none" fill-rule="evenodd" transform="matrix(-1 0 0 1 3107.11 1132)"/><text fill="#FFFFFF" font-family="Roboto,Roboto_MSFontService,sans-serif" font-weight="400" font-size="73" transform="matrix(1 0 0 1 3165.03 1043)">HTML report<tspan font-size="73" x="0" y="88">HTML widget</tspan><tspan font-size="73" x="0" y="176">raster image</tspan><tspan font-size="73" x="0" y="264">…</tspan></text><path d="M3134.5 1303.5C3127.04 1303.5 3121 1294.14 3121 1282.59L3121 1153.42C3121 1141.87 3114.96 1132.51 3107.5 1132.51 3114.96 1132.51 3121 1123.15 3121 1111.6L3121 1001.41C3121 989.864 3127.04 980.5 3134.5 980.5" stroke="#FFFFFF" stroke-width="6.875" stroke-miterlimit="8" fill="none" fill-rule="evenodd"/><text fill="#FFFFFF" font-family="Roboto,Roboto_MSFontService,sans-serif" font-weight="400" font-size="73" transform="matrix(1 0 0 1 675.411 1187)">observational<tspan font-size="73" x="460.625" y="0">data</tspan></text><path d="M0 0 287.336 4.29245" stroke="#FFFFFF" stroke-width="2.29167" stroke-miterlimit="8" fill="none" fill-rule="evenodd" transform="matrix(-1 0 0 1 1588.34 1157)"/><path d="M1937 874 1982.16 874.001" stroke="#323232" stroke-width="2.29167" stroke-miterlimit="8" fill="none" fill-rule="evenodd"/><path d="M1906 952 1936 900 1966 952Z" stroke="#323232" stroke-width="2.29167" stroke-miterlimit="8" fill="#FFFFFF" fill-rule="evenodd"/><path d="M1925 952 1955 900 1985 952Z" stroke="#323232" stroke-width="2.29167" stroke-miterlimit="8" fill="#FFFFFF" fill-rule="evenodd"/><path d="M1944 952 1974 900 2004 952Z" stroke="#323232" stroke-width="2.29167" stroke-miterlimit="8" fill="#FFFFFF" fill-rule="evenodd"/><text fill="#FFFFFF" font-family="Roboto,Roboto_MSFontService,sans-serif" font-weight="400" font-size="73" transform="matrix(-1.83697e-16 -1 1 -1.83697e-16 2105.9 785)">styling</text><text fill="#FFFFFF" font-family="Roboto,Roboto_MSFontService,sans-serif" font-weight="400" font-size="41" transform="matrix(1 0 0 1 1422.61 1245)">data.table<tspan font-size="41" x="1345.18" y="-8">svg</tspan></text><text fill="#FFFFFF" font-family="Roboto,Roboto_MSFontService,sans-serif" font-weight="400" font-size="73" transform="matrix(-1.83697e-16 -1 1 -1.83697e-16 2222.91 801)">infobox</text><path d="M2173 952 2203.5 900 2234 952Z" stroke="#323232" stroke-width="2.29167" stroke-miterlimit="8" fill="#FFFFFF" fill-rule="evenodd"/><path d="M2203 835 2203 899.65" stroke="#FFFFFF" stroke-width="2.29167" stroke-miterlimit="8" fill="none" fill-rule="evenodd"/><path d="M2041 952 2071 900 2101 952Z" stroke="#323232" stroke-width="2.29167" stroke-miterlimit="8" fill="#FFFFFF" fill-rule="evenodd"/><path d="M2057 952 2087 900 2117 952Z" stroke="#323232" stroke-width="2.29167" stroke-miterlimit="8" fill="#FFFFFF" fill-rule="evenodd"/><path d="M2089 835 2089 870.664" stroke="#FFFFFF" stroke-width="2.29167" stroke-miterlimit="8" fill="none" fill-rule="evenodd"/><path d="M2071 874 2116.16 874.001" stroke="#323232" stroke-width="2.29167" stroke-miterlimit="8" fill="none" fill-rule="evenodd"/><path d="M2079 952 2109.5 900 2140 952Z" stroke="#323232" stroke-width="2.29167" stroke-miterlimit="8" fill="#FFFFFF" fill-rule="evenodd"/><text fill="#FFFFFF" font-family="Roboto,Roboto_MSFontService,sans-serif" font-weight="400" font-size="73" transform="matrix(1 0 0 1 1222.66 1353)">width<tspan font-size="73" x="178.75" y="0">, </tspan><tspan font-size="73" x="211.406" y="0">height</tspan></text><path d="M1719 1297 1771 1327.5 1719 1358Z" stroke="#323232" stroke-width="2.29167" stroke-miterlimit="8" fill="#FFFFFF" fill-rule="evenodd"/><path d="M0 0 68.4952 0.000360892" stroke="#FFFFFF" stroke-width="2.29167" stroke-miterlimit="8" fill="none" fill-rule="evenodd" transform="matrix(-1 0 0 1 1719.5 1327)"/><text fill="#FFFFFF" font-family="Roboto,Roboto_MSFontService,sans-serif" font-weight="400" font-size="41" transform="matrix(1 0 0 1 1546.62 1416)">list<tspan font-size="73" x="31.8583" y="107">id</tspan></text><path d="M1719 1468 1771 1498 1719 1528Z" stroke="#323232" stroke-width="2.29167" stroke-miterlimit="8" fill="#FFFFFF" fill-rule="evenodd"/><path d="M0 0 68.4952 0.000360892" stroke="#FFFFFF" stroke-width="2.29167" stroke-miterlimit="8" fill="none" fill-rule="evenodd" transform="matrix(-1 0 0 1 1719.5 1498)"/><text fill="#FFFFFF" font-family="Roboto,Roboto_MSFontService,sans-serif" font-weight="400" font-size="41" transform="matrix(1 0 0 1 1432.23 1586)">character<tspan font-size="73" x="-72.4486" y="116">gridlines</tspan></text><path d="M1719 1646 1771 1676 1719 1706Z" stroke="#323232" stroke-width="2.29167" stroke-miterlimit="8" fill="#FFFFFF" fill-rule="evenodd"/><path d="M0 0 68.4952 0.000360892" stroke="#FFFFFF" stroke-width="2.29167" stroke-miterlimit="8" fill="none" fill-rule="evenodd" transform="matrix(-1 0 0 1 1719.5 1676)"/><text fill="#FFFFFF" font-family="Roboto,Roboto_MSFontService,sans-serif" font-weight="400" font-size="41" transform="matrix(1 0 0 1 1466.24 1764)">`vector</text><text fill="#FFFFFF" font-family="Roboto,Roboto_MSFontService,sans-serif" font-weight="400" font-size="73" transform="matrix(-1.83697e-16 -1 1 -1.83697e-16 2335.29 797)">behavio<tspan font-size="73" x="256" y="4.70264e-14">r</tspan></text><path d="M2287 952 2317 900 2347 952Z" stroke="#323232" stroke-width="2.29167" stroke-miterlimit="8" fill="#FFFFFF" fill-rule="evenodd"/><path d="M2317 835 2317 899.65" stroke="#FFFFFF" stroke-width="2.29167" stroke-miterlimit="8" fill="none" fill-rule="evenodd"/></g></svg>